<svg xmlns="http://www.w3.org/2000/svg" width="24" height="25" viewBox="0 0 24 25" fill="none">
    <path d="M21.2794 19.136C17.8838 16.6272 17.3487 16.5267 15.7212 14.8992C14.4784 13.6565 13.6302 12.8086 11.8159 10.9932C10.6388 9.81687 11.6524 6.86487 8.59241 3.80337C6.41779 1.6295 2.85228 0.432496 1.39203 1.89125C-0.06859 3.35187 1.12991 6.91887 3.30379 9.09312C6.36491 12.1527 9.31691 11.1387 10.494 12.3162C12.309 14.1305 13.1569 14.9787 14.3993 16.2219C16.0268 17.8494 16.1273 18.3849 18.6357 21.7797C19.8754 23.4605 21.0634 24.5292 22.5465 23.0461C24.0285 21.5641 22.9598 20.3761 21.2794 19.136ZM9.50291 9.64662C9.05254 10.0977 8.42141 10.3044 7.70628 10.2984C7.63803 10.2815 7.57166 10.2669 7.50229 10.25C8.53466 8.309 7.88216 5.31687 5.86054 2.71137C6.73331 3.11555 7.52867 3.66927 8.21066 4.3475C9.45304 5.58987 10.0215 6.77037 10.155 7.83875C10.2439 8.55537 9.95553 9.194 9.50291 9.64662Z" fill="#888888"/>
</svg>